<mxfile host="app.diagrams.net" modified="2022-01-12T16:16:30.209Z" agent="5.0 (Windows)" etag="tyv6K0gtXoiG6_CqGJwx" version="15.9.1" type="github">
  <diagram id="A0hgOR_ZViJl6x7oVj6j" name="Page-1">
    <mxGraphModel dx="1422" dy="752" grid="1" gridSize="10" guides="1" tooltips="1" connect="1" arrows="1" fold="1" page="1" pageScale="1" pageWidth="827" pageHeight="1169" math="0" shadow="0">
      <root>
        <mxCell id="0" />
        <mxCell id="1" parent="0" />
        <mxCell id="hXVI2BaOrkWBqV4rqojA-3" style="edgeStyle=orthogonalEdgeStyle;rounded=0;orthogonalLoop=1;jettySize=auto;html=1;exitX=0.5;exitY=1;exitDx=0;exitDy=0;entryX=0.5;entryY=0;entryDx=0;entryDy=0;" edge="1" parent="1" source="hXVI2BaOrkWBqV4rqojA-1" target="hXVI2BaOrkWBqV4rqojA-2">
          <mxGeometry relative="1" as="geometry" />
        </mxCell>
        <mxCell id="hXVI2BaOrkWBqV4rqojA-1" value="Dostali sme hlásenie že v moje eZdravie nie je výsledok" style="rounded=0;whiteSpace=wrap;html=1;" vertex="1" parent="1">
          <mxGeometry x="170" y="50" width="380" height="60" as="geometry" />
        </mxCell>
        <mxCell id="hXVI2BaOrkWBqV4rqojA-6" style="edgeStyle=orthogonalEdgeStyle;rounded=0;orthogonalLoop=1;jettySize=auto;html=1;exitX=0.5;exitY=1;exitDx=0;exitDy=0;entryX=0.474;entryY=-0.03;entryDx=0;entryDy=0;entryPerimeter=0;" edge="1" parent="1" source="hXVI2BaOrkWBqV4rqojA-2" target="hXVI2BaOrkWBqV4rqojA-4">
          <mxGeometry relative="1" as="geometry">
            <mxPoint x="360" y="340" as="targetPoint" />
          </mxGeometry>
        </mxCell>
        <mxCell id="hXVI2BaOrkWBqV4rqojA-10" value="Áno" style="edgeLabel;html=1;align=center;verticalAlign=middle;resizable=0;points=[];" vertex="1" connectable="0" parent="hXVI2BaOrkWBqV4rqojA-6">
          <mxGeometry x="-0.2728" relative="1" as="geometry">
            <mxPoint x="12" as="offset" />
          </mxGeometry>
        </mxCell>
        <mxCell id="hXVI2BaOrkWBqV4rqojA-12" style="edgeStyle=orthogonalEdgeStyle;rounded=0;orthogonalLoop=1;jettySize=auto;html=1;exitX=1;exitY=0.5;exitDx=0;exitDy=0;" edge="1" parent="1" source="hXVI2BaOrkWBqV4rqojA-2" target="hXVI2BaOrkWBqV4rqojA-11">
          <mxGeometry relative="1" as="geometry" />
        </mxCell>
        <mxCell id="hXVI2BaOrkWBqV4rqojA-13" value="Nie" style="edgeLabel;html=1;align=center;verticalAlign=middle;resizable=0;points=[];" vertex="1" connectable="0" parent="hXVI2BaOrkWBqV4rqojA-12">
          <mxGeometry x="0.4142" relative="1" as="geometry">
            <mxPoint x="-21" y="-11" as="offset" />
          </mxGeometry>
        </mxCell>
        <mxCell id="hXVI2BaOrkWBqV4rqojA-2" value="&lt;div&gt;V Analytixe sa nachádza &lt;br&gt;&lt;/div&gt;&lt;div&gt;klinická informácia NZIS hlásená žiadanka&lt;/div&gt;" style="rhombus;whiteSpace=wrap;html=1;" vertex="1" parent="1">
          <mxGeometry x="270" y="160" width="180" height="150" as="geometry" />
        </mxCell>
        <mxCell id="hXVI2BaOrkWBqV4rqojA-4" value="&lt;div&gt;Kontaktovať IT infra&lt;/div&gt;&lt;div&gt;Regeci, Zeleňák&lt;br&gt;&lt;/div&gt;" style="rounded=0;whiteSpace=wrap;html=1;" vertex="1" parent="1">
          <mxGeometry x="280" y="350" width="170" height="50" as="geometry" />
        </mxCell>
        <mxCell id="hXVI2BaOrkWBqV4rqojA-11" value="&lt;div&gt;Kontaktovať IT dev&lt;/div&gt;Šimšík" style="rounded=0;whiteSpace=wrap;html=1;" vertex="1" parent="1">
          <mxGeometry x="540" y="211.25" width="140" height="47.5" as="geometry" />
        </mxCell>
      </root>
    </mxGraphModel>
  </diagram>
</mxfile>
